<?xml version="1.0" encoding="UTF-8" standalone="no"?>
<svg
   xmlns:osb="http://www.openswatchbook.org/uri/2009/osb"
   xmlns:dc="http://purl.org/dc/elements/1.1/"
   xmlns:cc="http://creativecommons.org/ns#"
   xmlns:rdf="http://www.w3.org/1999/02/22-rdf-syntax-ns#"
   xmlns:svg="http://www.w3.org/2000/svg"
   xmlns="http://www.w3.org/2000/svg"
   xmlns:xlink="http://www.w3.org/1999/xlink"
   xmlns:sodipodi="http://sodipodi.sourceforge.net/DTD/sodipodi-0.dtd"
   xmlns:inkscape="http://www.inkscape.org/namespaces/inkscape"
   id="svg8"
   version="1.1"
   viewBox="0 0 67.046658 61.457095"
   height="232.27878"
   width="253.40471"
   sodipodi:docname="logo.svg"
   inkscape:version="0.92.4 (5da689c313, 2019-01-14)">
  <sodipodi:namedview
     pagecolor="#343131"
     bordercolor="#666666"
     borderopacity="1"
     objecttolerance="10"
     gridtolerance="10"
     guidetolerance="10"
     inkscape:pageopacity="0"
     inkscape:pageshadow="2"
     inkscape:window-width="1920"
     inkscape:window-height="1017"
     id="namedview40"
     showgrid="false"
     inkscape:zoom="1"
     inkscape:cx="105.44847"
     inkscape:cy="86.556997"
     inkscape:window-x="-8"
     inkscape:window-y="-8"
     inkscape:window-maximized="1"
     inkscape:current-layer="layer1">
    <inkscape:grid
       type="xygrid"
       id="grid4679" />
  </sodipodi:namedview>
  <defs
     id="defs2">
    <linearGradient
       id="linearGradient970">
      <stop
         style="stop-color:#bde3f1;stop-opacity:1"
         offset="0"
         id="stop966" />
      <stop
         style="stop-color:#3d95ca;stop-opacity:1"
         offset="1"
         id="stop968" />
    </linearGradient>
    <linearGradient
       id="linearGradient2335">
      <stop
         id="stop2331"
         offset="0"
         style="stop-color:#36acd4;stop-opacity:1;" />
      <stop
         id="stop2333"
         offset="1"
         style="stop-color:#36acd4;stop-opacity:0;" />
    </linearGradient>
    <marker
       style="overflow:visible"
       id="Arrow1Send"
       refX="0"
       refY="0"
       orient="auto">
      <path
         transform="matrix(-0.2,0,0,-0.2,-1.2,0)"
         style="fill-rule:evenodd;stroke:#000000;stroke-width:1.00000003pt"
         d="M 0,0 5,-5 -12.5,0 5,5 Z"
         id="path846" />
    </marker>
    <marker
       style="overflow:visible"
       id="Arrow1Lstart"
       refX="0"
       refY="0"
       orient="auto">
      <path
         transform="matrix(0.8,0,0,0.8,10,0)"
         style="fill-rule:evenodd;stroke:#000000;stroke-width:1.00000003pt"
         d="M 0,0 5,-5 -12.5,0 5,5 Z"
         id="path831" />
    </marker>
    <linearGradient
       osb:paint="solid"
       id="linearGradient2869">
      <stop
         id="stop2867"
         offset="0"
         style="stop-color:#000000;stop-opacity:1;" />
    </linearGradient>
    <linearGradient
       gradientUnits="userSpaceOnUse"
       y2="40.72253"
       x2="236.56006"
       y1="40.72253"
       x1="114.94463"
       id="linearGradient2339"
       xlink:href="#linearGradient2335" />
    <linearGradient
       gradientUnits="userSpaceOnUse"
       y2="56.226524"
       x2="174.90176"
       y1="26.247952"
       x1="174.90176"
       id="linearGradient964"
       xlink:href="#linearGradient970" />
  </defs>
  <metadata
     id="metadata5">
    <rdf:RDF>
      <cc:Work
         rdf:about="">
        <dc:format>image/svg+xml</dc:format>
        <dc:type
           rdf:resource="http://purl.org/dc/dcmitype/StillImage" />
        <dc:title></dc:title>
      </cc:Work>
    </rdf:RDF>
  </metadata>
  <g
     transform="translate(-22.669323,35.702064)"
     style="display:inline"
     id="layer3" />
  <g
     style="display:inline"
     transform="translate(-22.669323,-227.43126)"
     id="layer1">
    <flowRoot
       transform="matrix(0.26458333,0,0,0.26458333,0,263.13332)"
       style="font-style:normal;font-weight:normal;font-size:64px;line-height:1.25;letter-spacing:0px;word-spacing:0px;fill:#000000;fill-opacity:1;stroke:none"
       id="flowRoot1394"
       xml:space="preserve"><flowRegion
         style="font-size:64px"
         id="flowRegion1396"><rect
           style="font-size:64px"
           y="40"
           x="56"
           height="48"
           width="96"
           id="rect1398" /></flowRegion><flowPara
         id="flowPara1400" /></flowRoot>    <g
       id="g864"
       transform="matrix(1.8269603,0,0,1.7457894,21.173474,-234.34174)"
       style="font-style:normal;font-weight:normal;font-size:25.39999962px;line-height:1.25;letter-spacing:0px;word-spacing:0px;fill:#000000;fill-opacity:1;stroke:none;stroke-width:0.26458332">
      <circle
         r="8.8315868"
         cy="14.989442"
         cx="14.695166"
         id="path3693"
         style="display:inline;opacity:1;fill:#303d5a;fill-opacity:1;stroke:#36acd4;stroke-width:1.32105815;stroke-linecap:round;stroke-linejoin:round;stroke-miterlimit:4;stroke-dasharray:1.32105818, 1.32105818;stroke-dashoffset:5.69912481;stroke-opacity:1;paint-order:normal"
         transform="matrix(1.2230263,0,0,1.2798912,0.92882664,258.98628)" />
      <path
         id="path1406"
         style="font-size:25.39999962px;opacity:1;fill:#fdfdfd;fill-opacity:1;stroke:#36acd4;stroke-width:1.13507652;stroke-linecap:butt;stroke-linejoin:round;stroke-miterlimit:4;stroke-dasharray:none;stroke-dashoffset:0;stroke-opacity:1;paint-order:fill markers stroke"
         d="m 24.579913,284.07501 q -1.12911,0.51828 -2.471085,0.90699 -1.33272,0.37945 -2.582145,0.37945 -1.61037,0 -2.952345,-0.44423 -1.341975,-0.44425 -2.285985,-1.33273 -0.953265,-0.89774 -1.471545,-2.23971 -0.518281,-1.35123 -0.518281,-3.15595 0,-3.30404 1.92504,-5.21056 1.934295,-1.9158 5.303116,-1.9158 1.175385,0 2.397045,0.28691 1.230915,0.27765 2.64693,0.95327 v 2.17493 h -0.16659 q -0.286904,-0.22213 -0.83295,-0.58307 -0.546045,-0.36094 -1.07358,-0.60157 -0.638595,-0.28691 -1.453035,-0.47201 -0.805185,-0.19435 -1.83249,-0.19435 -2.31375,0 -3.664981,1.49004 -1.341974,1.48081 -1.341974,4.01668 0,2.67469 1.40676,4.16475 1.40676,1.4808 3.83157,1.4808 0.88848,0 1.767705,-0.17584 0.88848,-0.17586 1.55484,-0.4535 v -3.37808 h -3.692745 v -1.61036 h 5.506725 z" />
      <ellipse
         transform="matrix(0.99991254,-0.01322524,0.01207634,0.99992708,0,0)"
         ry="1.6829456"
         rx="1.6081969"
         cy="275.65598"
         cx="15.685247"
         id="path1197"
         style="opacity:1;fill:#ffffff;fill-opacity:1;stroke:#36acd4;stroke-width:0.82257301;stroke-linecap:round;stroke-linejoin:round;stroke-miterlimit:4;stroke-dasharray:none;stroke-dashoffset:0;stroke-opacity:1;paint-order:normal" />
      <ellipse
         ry="1.0591615"
         rx="1.0121037"
         cy="276.17838"
         cx="23.420879"
         id="path1197-0"
         style="font-style:normal;font-weight:normal;font-size:25.39999962px;line-height:1.25;letter-spacing:0px;word-spacing:0px;display:inline;opacity:1;fill:#ffffff;fill-opacity:1;stroke:#36acd4;stroke-width:0.51768261;stroke-linecap:round;stroke-linejoin:round;stroke-miterlimit:4;stroke-dasharray:none;stroke-dashoffset:0;stroke-opacity:1;paint-order:normal" />
    </g>
    <g
       aria-label="Goost"
       transform="matrix(0.5295449,0,0,0.52954491,-36.8761,256.46805)"
       style="font-style:normal;font-variant:normal;font-weight:normal;font-stretch:normal;font-size:48px;line-height:1.25;letter-spacing:0px;word-spacing:0px;fill:url(#linearGradient964);fill-opacity:1;stroke:none;stroke-width:1.49892856;stroke-miterlimit:4;stroke-dasharray:none;stroke-opacity:1;stroke-linejoin:round"
       id="flowRoot865">
      <path
         d="m 136.69084,44.034531 h -6.528 v -4.8 h 11.904 v 15.168 q -1.344,0.624 -4.8,1.248 -3.456,0.576 -6.288,0.576 -7.632,0 -10.608,-3.552 -2.928,-3.552 -2.928,-11.952 0,-8.016 3.456,-11.76 3.504,-3.744 11.04,-3.744 2.832,0 5.04,0.144 2.256,0.096 3.456,0.336 v 5.04 q -1.728,-0.144 -3.984,-0.24 -2.256,-0.096 -4.512,-0.096 -4.944,0 -6.768,2.256 -1.776,2.256 -1.776,8.064 0,2.784 0.288,4.608 0.336,1.824 0.96,2.976 0.816,1.44 2.304,2.064 1.536,0.624 4.512,0.624 1.008,0 2.352,-0.144 1.344,-0.144 2.88,-0.384 z"
         style="fill:url(#linearGradient964);fill-opacity:1;stroke:none;stroke-width:1.49892856;stroke-miterlimit:4;stroke-dasharray:none;stroke-opacity:1;stroke-linejoin:round"
         id="path895" />
      <path
         d="m 168.26959,43.890531 q 0,6.72 -2.592,9.552 -2.544,2.784 -8.736,2.784 -6.288,0 -8.832,-2.736 -2.544,-2.784 -2.544,-9.6 0,-6.672 2.592,-9.456 2.592,-2.832 8.784,-2.832 6.24,0 8.784,2.784 2.544,2.736 2.544,9.504 z m -17.136,-0.048 q 0,4.416 1.104,5.808 1.104,1.392 4.704,1.392 3.504,0 4.608,-1.392 1.152,-1.44 1.152,-5.808 0,-4.464 -1.104,-5.856 -1.056,-1.392 -4.656,-1.392 -3.552,0 -4.704,1.44 -1.104,1.44 -1.104,5.808 z"
         style="fill:url(#linearGradient964);fill-opacity:1;stroke:none;stroke-width:1.49892856;stroke-miterlimit:4;stroke-dasharray:none;stroke-opacity:1;stroke-linejoin:round"
         id="path897" />
      <path
         d="m 194.23834,43.890531 q 0,6.72 -2.592,9.552 -2.544,2.784 -8.736,2.784 -6.288,0 -8.832,-2.736 -2.544,-2.784 -2.544,-9.6 0,-6.672 2.592,-9.456 2.592,-2.832 8.784,-2.832 6.24,0 8.784,2.784 2.544,2.736 2.544,9.504 z m -17.136,-0.048 q 0,4.416 1.104,5.808 1.104,1.392 4.704,1.392 3.504,0 4.608,-1.392 1.152,-1.44 1.152,-5.808 0,-4.464 -1.104,-5.856 -1.056,-1.392 -4.656,-1.392 -3.552,0 -4.704,1.44 -1.104,1.44 -1.104,5.808 z"
         style="fill:url(#linearGradient964);fill-opacity:1;stroke:none;stroke-width:1.49892856;stroke-miterlimit:4;stroke-dasharray:none;stroke-opacity:1;stroke-linejoin:round"
         id="path899" />
      <path
         d="m 207.39109,36.402531 q -2.544,0 -3.504,0.528 -0.912,0.48 -0.912,2.16 0,0.816 0.384,1.248 0.384,0.384 1.296,0.528 l 5.904,0.864 q 2.832,0.384 3.936,1.776 1.152,1.392 1.152,4.416 0,4.368 -2.016,6.336 -2.016,1.968 -6.864,1.968 -2.784,0 -5.088,-0.24 -2.304,-0.24 -3.888,-0.72 v -4.944 q 1.488,0.384 3.648,0.672 2.16,0.24 4.368,0.24 2.496,0 3.36,-0.624 0.912,-0.624 0.912,-2.352 0,-0.864 -0.432,-1.296 -0.432,-0.48 -1.44,-0.624 l -6,-0.864 q -2.448,-0.336 -3.6,-1.824 -1.152,-1.536 -1.152,-4.416 0,-3.888 2.352,-5.76 2.4,-1.872 7.248,-1.872 1.968,0 3.6,0.096 1.632,0.096 3.36,0.384 v 4.752 q -1.248,-0.192 -3.024,-0.288 -1.728,-0.144 -3.6,-0.144 z"
         style="fill:url(#linearGradient964);fill-opacity:1;stroke:none;stroke-width:1.49892856;stroke-miterlimit:4;stroke-dasharray:none;stroke-opacity:1;stroke-linejoin:round"
         id="path901" />
      <path
         d="m 234.06184,50.610531 v 4.752 q -0.816,0.336 -2.304,0.576 -1.44,0.288 -2.64,0.288 -4.56,0 -6.528,-1.968 -1.968,-2.016 -1.968,-6.672 v -10.848 h -3.168 v -4.656 h 3.312 l 0.768,-5.664 h 4.656 v 5.664 h 7.584 v 4.656 h -7.584 v 10.656 q 0,2.112 0.912,2.88 0.912,0.768 3.264,0.768 0.816,0 1.92,-0.096 1.104,-0.144 1.776,-0.336 z"
         style="fill:url(#linearGradient964);fill-opacity:1;stroke:none;stroke-width:1.49892856;stroke-miterlimit:4;stroke-dasharray:none;stroke-opacity:1;stroke-linejoin:round"
         id="path903" />
    </g>
  </g>
  <g
     transform="translate(-22.669323,35.702064)"
     style="display:inline"
     id="layer2">
    <circle
       r="0"
       cy="270.94797"
       cx="9.7990313"
       id="path1099"
       style="display:inline;opacity:1;fill:#ffffff;fill-opacity:1;stroke:#36acd4;stroke-width:0.5291667;stroke-linecap:round;stroke-linejoin:round;stroke-miterlimit:4;stroke-dasharray:none;stroke-dashoffset:0;stroke-opacity:1;paint-order:normal"
       transform="translate(0,-263.13332)" />
    <circle
       r="0"
       cy="270.98578"
       cx="19.560268"
       id="path1099-6"
       style="display:inline;opacity:1;fill:#ffffff;fill-opacity:1;stroke:#36acd4;stroke-width:0.5291667;stroke-linecap:round;stroke-linejoin:round;stroke-miterlimit:4;stroke-dasharray:none;stroke-dashoffset:0;stroke-opacity:1;paint-order:normal"
       transform="translate(0,-263.13332)" />
  </g>
  <g
     transform="translate(-22.669323,-227.43126)"
     id="layer4" />
</svg>
